<svg width="24" height="24" viewBox="0 0 24 24" fill="none" xmlns="http://www.w3.org/2000/svg">
  <path d="M5 21C5 21 8.5 22 12 22C15.5 22 19 21 19 21V12C19 8.13401 15.866 5 12 5C8.13401 5 5 8.13401 5 12V21Z" fill="#AB9FF2"/>
  <path fill-rule="evenodd" clip-rule="evenodd" d="M12 2C6.47715 2 2 6.47715 2 12V20.5C2 21.0523 2.62886 21.3653 3.06173 21.0369L6.5 18.4285L9.5 20.6785L12 22L14.5 20.6785L17.5 18.4285L20.9383 21.0369C21.3711 21.3653 22 21.0523 22 20.5V12C22 6.47715 17.5228 2 12 2ZM8 10C8 8.89543 8.89543 8 10 8C11.1046 8 12 8.89543 12 10C12 11.1046 11.1046 12 10 12C8.89543 12 8 11.1046 8 10ZM16 8C14.8954 8 14 8.89543 14 10C14 11.1046 14.8954 12 16 12C17.1046 12 18 11.1046 18 10C18 8.89543 17.1046 8 16 8Z" fill="white"/>
</svg>
